<svg id="Layer_1" data-name="Layer 1" xmlns="http://www.w3.org/2000/svg" viewBox="0 0 329.7 79.95"><defs><style>.cls-1{fill:#fff;}</style></defs><title>abparking_logo</title><path class="cls-1" d="M312.84,456l-1.19-4.54h-5.46L304.93,456h-6.22l7.42-23.63h6.16l7,23.63h-6.42Zm-3.38-13.53a20,20,0,0,1-.43-3.25,25.54,25.54,0,0,1-.63,3.7l-0.93,3.86h3Z" transform="translate(-117.27 -411.25)"/><path class="cls-1" d="M329.57,456H320.2V432.4h10.23c3.34,0,6.06,1.46,6.06,5.8,0,2.14-.86,4.37-3.41,5.22a5.48,5.48,0,0,1,4.24,5.32C337.32,453,334.83,456,329.57,456Zm-1.16-18.65h-2.28v4.1h2.35c1.42,0,1.92-1,1.92-2.24A1.69,1.69,0,0,0,328.41,437.38Zm-0.1,8.92h-2.18V451h2.25c1.49,0,2.12-1,2.12-2.44C330.5,447.35,330.13,446.3,328.31,446.3Z" transform="translate(-117.27 -411.25)"/><path class="cls-1" d="M347.42,447.62h-1.85V456h-5.93V432.4h7.52c5.86,0,9.3,2,9.3,7.36C356.46,443.25,355,447.62,347.42,447.62Zm0.2-10.24h-2.05v5.42h1.72c1.85,0,2.71-.51,2.71-3.09C350,437.75,349,437.38,347.62,437.38Z" transform="translate(-117.27 -411.25)"/><path class="cls-1" d="M368.71,456.74a4.49,4.49,0,0,1-2.12-1.73,6.47,6.47,0,0,1-4.27,1.46c-4.24,0-5.86-2.58-5.86-5.7,0-3.32,2.81-5.7,7.58-5.7a8.4,8.4,0,0,1,1,0V444c0-1-.13-1.63-1.39-1.63a7.67,7.67,0,0,0-4.87,1.83l-2.09-3.66a15,15,0,0,1,7.68-2.47c3.25,0,5.53,1.12,6.16,3.19a8.75,8.75,0,0,1,.26,2.71l-0.07,6c0,1.46.13,2.64,1.33,3.42Zm-3.71-8c-2.42-.07-2.95.92-2.95,1.93a1.53,1.53,0,0,0,1.59,1.7,2,2,0,0,0,1.36-.58v-3.05Z" transform="translate(-117.27 -411.25)"/><path class="cls-1" d="M383.52,443.28a3,3,0,0,0-1.69-.47,2.22,2.22,0,0,0-2,1.25v12H374V445.38a27.57,27.57,0,0,0-.53-6.34l5.3-.92a8.19,8.19,0,0,1,.36,2.07,4.29,4.29,0,0,1,3.51-2.17,4.89,4.89,0,0,1,2.15.51Z" transform="translate(-117.27 -411.25)"/><path class="cls-1" d="M385.83,456V437.31a25.55,25.55,0,0,0-.33-5.19l5.73-1a34.72,34.72,0,0,1,.36,6.17V456h-5.76Zm10.2,0-4.4-9.9,3-7.59h6.75l-4.67,7.12L402.49,456H396Z" transform="translate(-117.27 -411.25)"/><path class="cls-1" d="M406,437.25a3.32,3.32,0,0,1-3.28-3.32,3.36,3.36,0,0,1,3.38-3.32,3.27,3.27,0,0,1,3.25,3.32A3.33,3.33,0,0,1,406,437.25ZM403.15,456V438.81l5.76-.54V456h-5.76Z" transform="translate(-117.27 -411.25)"/><path class="cls-1" d="M421.3,456V444.84c0-1.9-.6-1.9-1.42-1.9a3.29,3.29,0,0,0-1.89,1V456h-5.76V444.91a25.74,25.74,0,0,0-.53-5.87l5.3-.92a7.45,7.45,0,0,1,.33,1.63,7.89,7.89,0,0,1,4.93-1.66c4,0,4.8,2.41,4.8,4.81V456H421.3Z" transform="translate(-117.27 -411.25)"/><path class="cls-1" d="M444.38,442.3a3.19,3.19,0,0,1,.83,2.14c0,3.36-3.28,5.39-7,5.39h-1.85a1,1,0,0,0-.36.61c0,0.34.63,0.54,1.52,0.54H440c4,0,6.26,1.93,6.26,5.05,0,4-2.88,6.88-9.27,6.88-5.63,0-7.81-2.24-7.81-4.61a11.92,11.92,0,0,1,.23-2.27h5.17c0,0.34,0,.75,0,1.05,0,1,1,1.49,2.88,1.49s3-.88,3-1.9c0-1.25-.66-1.49-3.11-1.49h-3c-2.78,0-4.47-1.19-4.47-3.39a3.57,3.57,0,0,1,2.12-3.25,4.62,4.62,0,0,1-2.45-4.44c0-3.7,3-6,7.81-6,2.88,0,3.61.75,5.13,0.75a4.48,4.48,0,0,0,2.95-1.15l1.56,4.1A3.78,3.78,0,0,1,444.38,442.3Zm-7.09-.2a1.78,1.78,0,0,0-2,2,1.74,1.74,0,0,0,2,1.93,1.77,1.77,0,0,0,2.05-1.93A1.8,1.8,0,0,0,437.3,442.09Z" transform="translate(-117.27 -411.25)"/><polygon class="cls-1" points="22.9 5.36 0.65 52.75 20.82 52.75 21.02 52.75 36 20.64 38.55 20.64 23.58 52.75 51.25 52.75 51.25 5.36 22.9 5.36"/><path class="cls-1" d="M202.75,439.88s8-2.28,8-11.85c0-3.77-2.91-8.87-9.15-10.78-2.36-.72-5.89-0.65-9.42-0.65H172.32V464h6.37l15-32.11h2.55l-15,32.11h19.29c6.89,0,11.53-7,11.53-12.2,0-.52.39-9.14-9.32-11.92" transform="translate(-117.27 -411.25)"/><path class="cls-1" d="M240.5,416.6H214.61V464H221l15-32.11h2.55l-15,32.11h12.67V445.31A67.37,67.37,0,0,0,243,445c12.36-2.74,12-14,12-14a14.38,14.38,0,0,0-10.37-13.74,13,13,0,0,0-4.1-.65" transform="translate(-117.27 -411.25)"/><path class="cls-1" d="M120.17,481.73a2,2,0,0,0,.61.71,2.63,2.63,0,0,0,.89.4,4.2,4.2,0,0,0,1.05.13,5.5,5.5,0,0,0,.79-0.06,2.76,2.76,0,0,0,.79-0.24,1.72,1.72,0,0,0,.62-0.48,1.21,1.21,0,0,0,.25-0.78,1.1,1.1,0,0,0-.33-0.83,2.58,2.58,0,0,0-.85-0.53,8.49,8.49,0,0,0-1.2-.37q-0.67-.16-1.35-0.35a12,12,0,0,1-1.37-.43,4.69,4.69,0,0,1-1.2-.66,3.11,3.11,0,0,1-.85-1,3.07,3.07,0,0,1-.33-1.47,3.28,3.28,0,0,1,.41-1.68,3.73,3.73,0,0,1,1.08-1.19,4.71,4.71,0,0,1,1.51-.7,6.44,6.44,0,0,1,1.69-.23,8,8,0,0,1,1.89.22,4.72,4.72,0,0,1,1.61.71,3.61,3.61,0,0,1,1.12,1.26,3.86,3.86,0,0,1,.41,1.86h-2.67a2.23,2.23,0,0,0-.24-0.93,1.56,1.56,0,0,0-.54-0.58,2.28,2.28,0,0,0-.76-0.3,4.73,4.73,0,0,0-.94-0.09,3.26,3.26,0,0,0-.67.07,1.79,1.79,0,0,0-.61.25,1.53,1.53,0,0,0-.45.44,1.18,1.18,0,0,0-.18.67,1.13,1.13,0,0,0,.14.6,1.25,1.25,0,0,0,.55.42,7,7,0,0,0,1.14.39l1.91,0.49q0.35,0.07,1,.25a4.68,4.68,0,0,1,1.24.59,3.76,3.76,0,0,1,1.06,1.08,3.08,3.08,0,0,1,.45,1.73,3.84,3.84,0,0,1-.33,1.6,3.48,3.48,0,0,1-1,1.27,4.77,4.77,0,0,1-1.64.84,7.74,7.74,0,0,1-2.26.3,7.94,7.94,0,0,1-2-.25,5.06,5.06,0,0,1-1.72-.8,3.94,3.94,0,0,1-1.19-1.39,4.14,4.14,0,0,1-.42-2h2.67A2.3,2.3,0,0,0,120.17,481.73Z" transform="translate(-117.27 -411.25)"/><path class="cls-1" d="M129.35,476a6.27,6.27,0,0,1,1.21-2.1,5.54,5.54,0,0,1,1.94-1.41,6.87,6.87,0,0,1,5.2,0,5.57,5.57,0,0,1,1.93,1.41,6.28,6.28,0,0,1,1.21,2.1,7.85,7.85,0,0,1,.42,2.61,7.58,7.58,0,0,1-.42,2.56,6.12,6.12,0,0,1-1.21,2.07,5.57,5.57,0,0,1-1.93,1.38,7,7,0,0,1-5.2,0,5.54,5.54,0,0,1-1.94-1.38,6.11,6.11,0,0,1-1.21-2.07,7.58,7.58,0,0,1-.42-2.56A7.85,7.85,0,0,1,129.35,476Zm2.52,4.15a4.17,4.17,0,0,0,.59,1.35,3,3,0,0,0,1.06,1,3.66,3.66,0,0,0,3.17,0,3,3,0,0,0,1.05-1,4.15,4.15,0,0,0,.59-1.35,6.37,6.37,0,0,0,.18-1.54,6.85,6.85,0,0,0-.18-1.6,4.23,4.23,0,0,0-.59-1.38,3,3,0,0,0-1.05-1,3.65,3.65,0,0,0-3.17,0,3,3,0,0,0-1.06,1,4.25,4.25,0,0,0-.59,1.38,6.88,6.88,0,0,0-.18,1.6A6.4,6.4,0,0,0,131.88,480.14Z" transform="translate(-117.27 -411.25)"/><path class="cls-1" d="M152.39,483.87a6.91,6.91,0,0,1-7.89,0,4.8,4.8,0,0,1-1.4-3.8v-7.81h2.76v7.81a5.67,5.67,0,0,0,.09,1,1.95,1.95,0,0,0,1.15,1.49,3.18,3.18,0,0,0,1.35.24,2.59,2.59,0,0,0,2-.66,3.14,3.14,0,0,0,.56-2.07v-7.81h2.76v7.81A4.76,4.76,0,0,1,152.39,483.87Z" transform="translate(-117.27 -411.25)"/><path class="cls-1" d="M155.21,474.59v-2.32H165.5v2.32h-3.76v10.24H159V474.59h-3.76Z" transform="translate(-117.27 -411.25)"/><path class="cls-1" d="M169.7,472.27v4.82h5.08v-4.82h2.76v12.56h-2.76v-5.42H169.7v5.42h-2.76V472.27h2.76Z" transform="translate(-117.27 -411.25)"/><path class="cls-1" d="M186.23,472.27l4.7,12.56h-2.87l-0.95-2.8h-4.7l-1,2.8h-2.78l4.75-12.56h2.83Zm0.16,7.7-1.58-4.61h0L183.14,480h3.25Z" transform="translate(-117.27 -411.25)"/><path class="cls-1" d="M195.91,472.27l2.94,8.64h0l2.78-8.64h3.89v12.56H203v-8.9h0l-3.08,8.9h-2.13L194.64,476h0v8.81H192V472.27h3.89Z" transform="translate(-117.27 -411.25)"/><path class="cls-1" d="M213.63,472.27a5.23,5.23,0,0,1,2,.34,3.75,3.75,0,0,1,1.35.91,3.49,3.49,0,0,1,.76,1.28,4.8,4.8,0,0,1,0,3,3.48,3.48,0,0,1-.76,1.29,3.75,3.75,0,0,1-1.35.91,5.23,5.23,0,0,1-2,.34h-2.9v4.5H208V472.27h5.66Zm-0.76,5.91a5.75,5.75,0,0,0,.91-0.07,2.12,2.12,0,0,0,.77-0.27,1.48,1.48,0,0,0,.54-0.57,2.42,2.42,0,0,0,0-1.93,1.49,1.49,0,0,0-.54-0.57,2.13,2.13,0,0,0-.77-0.27,5.83,5.83,0,0,0-.91-0.07h-2.15v3.76h2.15Z" transform="translate(-117.27 -411.25)"/><path class="cls-1" d="M218.72,474.59v-2.32H229v2.32h-3.76v10.24h-2.76V474.59h-3.76Z" transform="translate(-117.27 -411.25)"/><path class="cls-1" d="M230.32,476a6.27,6.27,0,0,1,1.21-2.1,5.54,5.54,0,0,1,1.94-1.41,6.87,6.87,0,0,1,5.2,0,5.57,5.57,0,0,1,1.93,1.41,6.28,6.28,0,0,1,1.21,2.1,7.85,7.85,0,0,1,.42,2.61,7.58,7.58,0,0,1-.42,2.56,6.12,6.12,0,0,1-1.21,2.07,5.57,5.57,0,0,1-1.93,1.38,7,7,0,0,1-5.2,0,5.54,5.54,0,0,1-1.94-1.38,6.11,6.11,0,0,1-1.21-2.07,7.58,7.58,0,0,1-.42-2.56A7.85,7.85,0,0,1,230.32,476Zm2.52,4.15a4.17,4.17,0,0,0,.59,1.35,3,3,0,0,0,1.06,1,3.66,3.66,0,0,0,3.17,0,3,3,0,0,0,1.05-1,4.15,4.15,0,0,0,.59-1.35,6.37,6.37,0,0,0,.18-1.54,6.85,6.85,0,0,0-.18-1.6,4.23,4.23,0,0,0-.59-1.38,3,3,0,0,0-1.05-1,3.65,3.65,0,0,0-3.17,0,3,3,0,0,0-1.06,1,4.25,4.25,0,0,0-.59,1.38,6.88,6.88,0,0,0-.18,1.6A6.4,6.4,0,0,0,232.85,480.14Z" transform="translate(-117.27 -411.25)"/><path class="cls-1" d="M246.87,472.27l5.24,8.42h0v-8.42h2.58v12.56H252l-5.22-8.41h0v8.41h-2.59V472.27h2.74Z" transform="translate(-117.27 -411.25)"/><rect class="cls-1" x="158.55" width="3.06" height="79.95"/><path class="cls-1" d="M302.67,471.93a3.81,3.81,0,0,1-3.07-1.4,5.31,5.31,0,0,1-1.11-3.46,6.14,6.14,0,0,1,.64-2.94,4,4,0,0,1,3.57-2.23,3.87,3.87,0,0,1,2.41.76l-0.74,1.06a2.69,2.69,0,0,0-1.65-.55,2.16,2.16,0,0,0-1.93,1.16,5.13,5.13,0,0,0-.5,2.55,5.56,5.56,0,0,0,.38,2.41,2.26,2.26,0,0,0,2.16,1.37,2.57,2.57,0,0,0,1.74-.62l0.76,1A4.19,4.19,0,0,1,302.67,471.93Z" transform="translate(-117.27 -411.25)"/><path class="cls-1" d="M311.56,471.78l-0.84-1.5a10.68,10.68,0,0,0-1.65-2.4,0.83,0.83,0,0,0-.63-0.29v4.19h-1.58v-9.69h3c2.17,0,3.15,1.26,3.15,2.77a2.48,2.48,0,0,1-2.41,2.66,7.34,7.34,0,0,1,1.5,1.93l1.43,2.33h-1.92Zm-2.24-8.39h-0.88v3.07h0.83a2.1,2.1,0,0,0,1.58-.41,1.63,1.63,0,0,0,.43-1.18C311.28,463.89,310.75,463.39,309.32,463.39Z" transform="translate(-117.27 -411.25)"/><path class="cls-1" d="M318.15,471.95c-2.55,0-3.35-1.32-3.35-2.87v-7h1.63v6.51c0,1.48.53,2,1.72,2s1.75-.69,1.75-2v-6.51h1.61v7C321.51,470.84,320.28,471.95,318.15,471.95Z" transform="translate(-117.27 -411.25)"/><path class="cls-1" d="M323.68,471.78v-9.69h1.65v9.69h-1.65Z" transform="translate(-117.27 -411.25)"/><path class="cls-1" d="M330.26,472a6.21,6.21,0,0,1-3.18-.87l0.62-1.23a5,5,0,0,0,2.62.8c1.19,0,1.91-.58,1.91-1.54,0-.71-0.45-1.16-1.44-1.44l-1-.29a3.18,3.18,0,0,1-1.88-1.16,2.44,2.44,0,0,1-.41-1.42c0-1.71,1.34-2.87,3.29-2.87a5.39,5.39,0,0,1,3.07.92L333.09,464a4.17,4.17,0,0,0-2.28-.74,1.38,1.38,0,0,0-1.58,1.32c0,0.6.34,0.91,1.29,1.19l1.15,0.34a2.86,2.86,0,0,1,2.38,2.76C334,470.46,332.74,472,330.26,472Z" transform="translate(-117.27 -411.25)"/><path class="cls-1" d="M335.65,471.78v-9.69H341l-0.21,1.32h-3.56V466h3v1.33h-3v3h3.88v1.37h-5.52Z" transform="translate(-117.27 -411.25)"/><path class="cls-1" d="M349.4,471.93a3.81,3.81,0,0,1-3.07-1.4,5.31,5.31,0,0,1-1.11-3.46,6.13,6.13,0,0,1,.64-2.94,4,4,0,0,1,3.57-2.23,3.87,3.87,0,0,1,2.41.76l-0.74,1.06a2.69,2.69,0,0,0-1.65-.55,2.16,2.16,0,0,0-1.93,1.16,5.11,5.11,0,0,0-.5,2.55,5.56,5.56,0,0,0,.38,2.41,2.26,2.26,0,0,0,2.16,1.37,2.57,2.57,0,0,0,1.74-.62l0.76,1A4.2,4.2,0,0,1,349.4,471.93Z" transform="translate(-117.27 -411.25)"/><path class="cls-1" d="M358.81,471.78L358,469.23h-3.14l-0.78,2.55h-1.67l3.18-9.71h1.86l3.1,9.71h-1.76Zm-2.3-8.1h0s-1,3.56-1.22,4.2h2.38C357.56,467.67,356.58,464.06,356.51,463.68Z" transform="translate(-117.27 -411.25)"/><path class="cls-1" d="M366.37,471.78l-0.84-1.5a10.68,10.68,0,0,0-1.65-2.4,0.83,0.83,0,0,0-.63-0.29v4.19h-1.58v-9.69h3c2.17,0,3.15,1.26,3.15,2.77a2.48,2.48,0,0,1-2.41,2.66,7.34,7.34,0,0,1,1.5,1.93l1.43,2.33h-1.92Zm-2.24-8.39h-0.88v3.07h0.83a2.1,2.1,0,0,0,1.58-.41,1.63,1.63,0,0,0,.43-1.18C366.09,463.89,365.55,463.39,364.13,463.39Z" transform="translate(-117.27 -411.25)"/><path class="cls-1" d="M376.07,468.08h-1.64v3.7h-1.6v-9.69h2.58a4.23,4.23,0,0,1,2.46.46,2.72,2.72,0,0,1,1.33,2.44A3,3,0,0,1,376.07,468.08Zm1-4.22a1.74,1.74,0,0,0-1.34-.48h-1.26v3.4h1.26a1.51,1.51,0,0,0,1.74-1.71A1.7,1.7,0,0,0,377,463.86Z" transform="translate(-117.27 -411.25)"/><path class="cls-1" d="M385.27,471.78l-0.79-2.55h-3.14l-0.78,2.55h-1.67l3.18-9.71h1.86l3.1,9.71h-1.76Zm-2.3-8.1h0s-1,3.56-1.22,4.2h2.38C384,467.67,383,464.06,383,463.68Z" transform="translate(-117.27 -411.25)"/><path class="cls-1" d="M392.83,471.78l-0.84-1.5a10.68,10.68,0,0,0-1.65-2.4,0.83,0.83,0,0,0-.63-0.29v4.19h-1.58v-9.69h3c2.17,0,3.15,1.26,3.15,2.77a2.48,2.48,0,0,1-2.41,2.66,7.34,7.34,0,0,1,1.5,1.93l1.43,2.33h-1.92Zm-2.24-8.39H389.7v3.07h0.83a2.1,2.1,0,0,0,1.58-.41,1.63,1.63,0,0,0,.43-1.18C392.55,463.89,392,463.39,390.58,463.39Z" transform="translate(-117.27 -411.25)"/><path class="cls-1" d="M396.14,471.78v-9.69h1.64v9.69h-1.64Zm4.92,0-3.26-5.17,3.15-4.52h2l-3.36,4.5,3.59,5.2h-2.1Z" transform="translate(-117.27 -411.25)"/><path class="cls-1" d="M404.14,471.78v-9.69h1.65v9.69h-1.65Z" transform="translate(-117.27 -411.25)"/><path class="cls-1" d="M412.9,471.78l-2.17-4.55a28.78,28.78,0,0,1-1.23-2.87l0,0c0.07,0.81.08,1.83,0.1,2.69l0.06,4.69H408v-9.69h1.82l2.35,4.73a17.68,17.68,0,0,1,1,2.49l0,0c0-.49-0.14-1.88-0.14-2.76l0-4.43h1.53v9.69h-1.7Z" transform="translate(-117.27 -411.25)"/><path class="cls-1" d="M420.66,471.9a3.81,3.81,0,0,1-3.17-1.37,5.24,5.24,0,0,1-1.08-3.53,4.94,4.94,0,0,1,1.82-4.29,3.74,3.74,0,0,1,2.4-.76,4.3,4.3,0,0,1,2.88,1l-0.81,1a3.18,3.18,0,0,0-2-.74c-1.79,0-2.45,1.57-2.45,3.84a4.47,4.47,0,0,0,.71,2.86,2.42,2.42,0,0,0,1.83.73,2.65,2.65,0,0,0,1.29-.31v-2.52h-1.65l-0.22-1.32h3.52v4.57A5.9,5.9,0,0,1,420.66,471.9Z" transform="translate(-117.27 -411.25)"/></svg>